<?xml version="1.0" encoding="UTF-8"?>
<svg id="Layer_2" data-name="Layer 2" xmlns="http://www.w3.org/2000/svg" viewBox="0 0 547.42 206">
  <defs>
    <style>
      .cls-1 {
        fill: #fff;
      }

      .cls-2 {
        fill: #1e6d72;
      }
    </style>
  </defs>
  <g id="Layer_1-2" data-name="Layer 1">
    <g>
      <path class="cls-1" d="M156.72,91.68l-25.44,30.87c7.51,6.19,11.12,15.68,9.21,24.18-2.43,10.82-13.14,18.67-25.44,18.68H40v-35.37L0,170.04v31.11c0,2.35,1.9,4.25,4.25,4.25h110.81c30.84-.01,57.95-21,64.45-49.89,5.19-23.08-3.75-48.13-22.79-63.82Z"/>
      <path class="cls-2" d="M40,101.75v-61.68h69.97l1.41-.05c3.25-.23,6.29,1.5,7.58,4.3,1.13,2.46.74,5.43-.96,7.7l-15.71,15.71.02.02-37.14,37.14v28.25h28.29l54.06-54.06.49-.57c12.12-14.1,15-34.05,7.34-50.81C147.26,10.04,128.86-.98,109.36.07H4.25C1.9.07,0,1.97,0,4.32v137.43l40-40Z"/>
      <g>
        <path class="cls-2" d="M217.91,26.01h24.03c14.57,0,25.89,3.94,25.89,17.16,0,6.2-3.52,12.81-9.25,14.93v.42c7.17,1.84,12.71,7.04,12.71,16.28,0,14.07-12.08,20.38-27.35,20.38h-26.03V26.01ZM241.2,53.71c7.7,0,11.11-3.21,11.11-8.24,0-5.33-3.6-7.4-10.99-7.4h-7.54v15.64h7.42ZM242.64,83.11c8.65,0,13.12-3.03,13.12-9.32s-4.39-8.54-13.12-8.54h-8.87v17.86h8.87Z"/>
        <path class="cls-2" d="M281.76,42.53h12.92l1.14,9.2h.39c3.89-7.03,9.73-10.48,15.18-10.48,3.05,0,4.83.39,6.37,1.06l-2.64,13.46c-1.9-.46-3.47-.85-5.77-.85-4.03,0-8.92,2.56-11.77,9.74v30.51h-15.83v-52.65Z"/>
        <path class="cls-2" d="M323.4,26.67c0-4.78,3.85-8.16,9.16-8.16s9.16,3.37,9.16,8.16-3.85,8.16-9.16,8.16-9.16-3.41-9.16-8.16ZM324.62,42.53h15.83v52.65h-15.83v-52.65Z"/>
        <path class="cls-2" d="M349.63,89.1l7.12-9.72c4.84,3.61,9.31,5.53,13.78,5.53,4.71,0,6.75-1.77,6.75-4.53,0-3.47-5.3-5.04-10.79-7.16-6.55-2.5-14.14-6.78-14.14-15.48,0-9.8,8.09-16.48,20.42-16.48,8.19,0,14.28,3.26,18.83,6.67l-7.09,9.37c-3.8-2.72-7.55-4.49-11.25-4.49-4.09,0-6.1,1.58-6.1,4.2,0,3.36,5,4.64,10.54,6.63,6.77,2.47,14.39,6.22,14.39,15.85s-7.63,16.98-21.95,16.98c-7.04,0-15.1-3.01-20.52-7.36Z"/>
        <path class="cls-2" d="M402.07,20.83h15.48v42.59h.39l16.95-20.9h17.19l-18.72,21.7,20.13,30.95h-17.15l-12.02-20.54-6.78,7.58v12.96h-15.48V20.83Z"/>
        <path class="cls-1" d="M217.91,114.45h24.03c14.57,0,25.89,3.94,25.89,17.16,0,6.2-3.52,12.81-9.25,14.93v.42c7.17,1.84,12.71,7.04,12.71,16.28,0,14.07-12.08,20.38-27.35,20.38h-26.03v-69.17ZM241.2,142.15c7.7,0,11.11-3.21,11.11-8.24,0-5.33-3.6-7.4-10.99-7.4h-7.54v15.64h7.42ZM242.64,171.55c8.65,0,13.12-3.03,13.12-9.32s-4.39-8.54-13.12-8.54h-8.87v17.86h8.87Z"/>
        <path class="cls-1" d="M281.25,163.65v-32.69h15.83v30.69c0,7.58,2.06,9.95,6.64,9.95,3.98,0,6.41-1.65,9.5-5.79v-34.85h15.83v52.65h-12.92l-1.14-7.3h-.39c-4.46,5.24-9.49,8.58-16.78,8.58-11.62,0-16.57-8.08-16.57-21.24Z"/>
        <path class="cls-1" d="M340.19,157.31c0-17.22,10.91-27.62,22.16-27.62,5.89,0,9.49,2.16,13.1,5.49l-.57-7.98v-17.94h15.83v74.35h-12.92l-1.14-5.22h-.39c-3.78,3.72-9.06,6.49-14.22,6.49-13.28,0-21.86-10.39-21.86-27.58ZM374.88,167.41v-21.62c-2.8-2.47-5.94-3.33-8.84-3.33-5.13,0-9.63,4.67-9.63,14.68s3.62,14.99,9.75,14.99c3.37,0,6.09-1.26,8.71-4.72Z"/>
        <path class="cls-1" d="M401.37,192.66c0-4.37,2.66-7.9,7.58-10.6v-.42c-2.76-1.84-4.88-4.59-4.88-8.94,0-3.8,2.56-7.5,5.96-9.86v-.42c-3.76-2.58-7.17-7.5-7.17-13.66,0-12.64,10.59-19.05,22.1-19.05,2.98,0,5.88.46,8.28,1.27h19.54v11.37h-8.59c1,1.57,1.81,4.18,1.81,6.94,0,12.11-9.35,17.69-21.04,17.69-1.95,0-4.16-.32-6.52-1.02-1.3,1.12-1.86,2.06-1.86,3.92,0,2.6,2.15,3.86,7.99,3.86h8.67c13.1,0,20.4,3.96,20.4,13.39,0,10.94-11.57,18.91-29.91,18.91-12.43,0-22.35-3.98-22.35-13.35ZM438.47,189.76c0-3.32-2.89-4.08-8.15-4.08h-5.55c-3.66,0-5.75-.21-7.49-.67-1.97,1.65-2.89,3.27-2.89,5.17,0,3.99,4.69,6.04,11.84,6.04s12.22-2.81,12.22-6.45ZM432.25,148.74c0-5.61-3.09-8.56-7.29-8.56s-7.29,2.93-7.29,8.56,3.13,8.77,7.29,8.77,7.29-3.01,7.29-8.77Z"/>
        <path class="cls-1" d="M457.13,157.31c0-17.08,12.37-27.62,25.2-27.62,15.22,0,22.76,10.9,22.76,25.27,0,2.81-.36,5.62-.66,6.89h-31.97c1.42,7.64,6.73,11.14,13.86,11.14,4.04,0,7.68-1.21,11.56-3.45l5.23,9.41c-5.47,3.73-12.62,5.93-18.96,5.93-15.23,0-27.03-10.15-27.03-27.58ZM491.57,151.54c0-5.79-2.56-9.96-8.88-9.96-5,0-9.32,3.31-10.4,9.96h19.28Z"/>
        <path class="cls-1" d="M517.1,164.47v-21.27h-7.3v-11.64l8.19-.6,1.85-13.98h13.1v13.98h12.81v12.24h-12.81v21.08c0,5.97,2.75,8.36,6.92,8.36,1.76,0,3.67-.5,5.08-1l2.5,11.33c-2.84.89-6.69,1.91-11.87,1.91-13.21,0-18.45-8.22-18.45-20.42Z"/>
      </g>
    </g>
  </g>
</svg>