<?xml version="1.0" encoding="UTF-8"?>
<svg id="Layer_2" data-name="Layer 2" xmlns="http://www.w3.org/2000/svg" viewBox="0 0 273.76 310.72">
  <defs>
    <style>
      .cls-1 {
        fill: #1e6d72;
      }

      .cls-2 {
        fill: #333132;
      }
    </style>
  </defs>
  <g id="Layer_1-2" data-name="Layer 1">
    <g>
      <path class="cls-2" d="M237.08,138.69l-38.49,46.69c11.36,9.36,16.82,23.71,13.93,36.57-3.68,16.36-19.87,28.24-38.48,28.25H60.51v-53.5L0,257.22v47.07c0,3.55,2.88,6.43,6.43,6.43h167.62c46.66-.02,87.67-31.77,97.5-75.48,7.86-34.91-5.68-72.81-34.48-96.55Z"/>
      <path class="cls-1" d="M60.51,153.93V60.61h105.84l2.13-.08c4.92-.35,9.52,2.27,11.46,6.51,1.7,3.73,1.12,8.22-1.46,11.64l-23.76,23.76.02.02-56.18,56.18v42.74h42.79l81.78-81.78.74-.87c18.34-21.34,22.69-51.51,11.1-76.86C222.77,15.19,194.94-1.48,165.43.1H6.43C2.88.1,0,2.98,0,6.54v207.9l60.51-60.51Z"/>
    </g>
  </g>
</svg>